<mxfile host="app.diagrams.net" modified="2024-05-16T13:15:24.969Z" agent="Mozilla/5.0 (Windows NT 10.0; Win64; x64; rv:125.0) Gecko/20100101 Firefox/125.0" etag="7CpKQwR12nKsUu3PmpZf" version="24.4.2" type="github" pages="2">
  <diagram id="ZtWWPMljTFp8yyawiEbH" name="ЭАО Причины">
    <mxGraphModel dx="1735" dy="1025" grid="1" gridSize="10" guides="1" tooltips="1" connect="1" arrows="1" fold="1" page="1" pageScale="1" pageWidth="1654" pageHeight="1169" math="0" shadow="0">
      <root>
        <mxCell id="0" />
        <mxCell id="1" parent="0" />
        <mxCell id="1M11u-CtS68cAVDWNLhs-82" value="Кнопка ЭАО" style="rounded=1;whiteSpace=wrap;html=1;fontFamily=Tahoma;" parent="1" vertex="1">
          <mxGeometry x="80" y="258" width="120" height="60" as="geometry" />
        </mxCell>
        <mxCell id="1M11u-CtS68cAVDWNLhs-83" value="2оо3" style="whiteSpace=wrap;html=1;rounded=0;fontFamily=Tahoma;" parent="1" vertex="1">
          <mxGeometry x="280" y="258" width="40" height="60" as="geometry" />
        </mxCell>
        <mxCell id="1M11u-CtS68cAVDWNLhs-84" value="" style="edgeStyle=orthogonalEdgeStyle;rounded=0;orthogonalLoop=1;jettySize=auto;html=1;endArrow=none;endFill=0;entryX=0;entryY=0.25;entryDx=0;entryDy=0;exitX=1;exitY=0.25;exitDx=0;exitDy=0;fontFamily=Tahoma;" parent="1" source="1M11u-CtS68cAVDWNLhs-82" target="1M11u-CtS68cAVDWNLhs-83" edge="1">
          <mxGeometry relative="1" as="geometry">
            <mxPoint x="310" y="208" as="sourcePoint" />
            <mxPoint x="350" y="208" as="targetPoint" />
            <Array as="points" />
          </mxGeometry>
        </mxCell>
        <mxCell id="1M11u-CtS68cAVDWNLhs-85" value="НО" style="edgeLabel;html=1;align=center;verticalAlign=middle;resizable=0;points=[];fontFamily=Tahoma;" parent="1M11u-CtS68cAVDWNLhs-84" vertex="1" connectable="0">
          <mxGeometry x="-0.0273" y="1" relative="1" as="geometry">
            <mxPoint x="-28" as="offset" />
          </mxGeometry>
        </mxCell>
        <mxCell id="1M11u-CtS68cAVDWNLhs-86" value="" style="edgeStyle=orthogonalEdgeStyle;rounded=0;orthogonalLoop=1;jettySize=auto;html=1;endArrow=none;endFill=0;entryX=0;entryY=0.5;entryDx=0;entryDy=0;exitX=1;exitY=0.5;exitDx=0;exitDy=0;fontFamily=Tahoma;" parent="1" source="1M11u-CtS68cAVDWNLhs-82" target="1M11u-CtS68cAVDWNLhs-83" edge="1">
          <mxGeometry relative="1" as="geometry">
            <mxPoint x="210" y="283" as="sourcePoint" />
            <mxPoint x="290" y="283" as="targetPoint" />
            <Array as="points" />
          </mxGeometry>
        </mxCell>
        <mxCell id="1M11u-CtS68cAVDWNLhs-87" value="НЗ" style="edgeLabel;html=1;align=center;verticalAlign=middle;resizable=0;points=[];fontFamily=Tahoma;" parent="1M11u-CtS68cAVDWNLhs-86" vertex="1" connectable="0">
          <mxGeometry x="-0.0564" relative="1" as="geometry">
            <mxPoint x="-27" as="offset" />
          </mxGeometry>
        </mxCell>
        <mxCell id="1M11u-CtS68cAVDWNLhs-88" value="" style="edgeStyle=orthogonalEdgeStyle;rounded=0;orthogonalLoop=1;jettySize=auto;html=1;endArrow=none;endFill=0;entryX=0;entryY=0.75;entryDx=0;entryDy=0;exitX=1;exitY=0.75;exitDx=0;exitDy=0;fontFamily=Tahoma;" parent="1" source="1M11u-CtS68cAVDWNLhs-82" target="1M11u-CtS68cAVDWNLhs-83" edge="1">
          <mxGeometry relative="1" as="geometry">
            <mxPoint x="210" y="298" as="sourcePoint" />
            <mxPoint x="290" y="298" as="targetPoint" />
            <Array as="points" />
          </mxGeometry>
        </mxCell>
        <mxCell id="1M11u-CtS68cAVDWNLhs-89" value="НЗ" style="edgeLabel;html=1;align=center;verticalAlign=middle;resizable=0;points=[];fontFamily=Tahoma;" parent="1M11u-CtS68cAVDWNLhs-88" vertex="1" connectable="0">
          <mxGeometry x="-0.0157" relative="1" as="geometry">
            <mxPoint x="-28" as="offset" />
          </mxGeometry>
        </mxCell>
        <mxCell id="1M11u-CtS68cAVDWNLhs-90" value="ЭАО" style="rounded=1;whiteSpace=wrap;html=1;fontFamily=Tahoma;" parent="1" vertex="1">
          <mxGeometry x="600" y="257" width="40" height="20" as="geometry" />
        </mxCell>
        <mxCell id="1M11u-CtS68cAVDWNLhs-91" value="1" style="whiteSpace=wrap;html=1;rounded=0;fontFamily=Tahoma;verticalAlign=top;" parent="1" vertex="1">
          <mxGeometry x="540" y="227" width="20" height="80" as="geometry" />
        </mxCell>
        <mxCell id="1M11u-CtS68cAVDWNLhs-93" value="" style="edgeStyle=orthogonalEdgeStyle;rounded=0;orthogonalLoop=1;jettySize=auto;html=1;endArrow=none;endFill=0;entryX=0;entryY=0.75;entryDx=0;entryDy=0;exitX=1;exitY=0.5;exitDx=0;exitDy=0;fontFamily=Tahoma;" parent="1" source="1M11u-CtS68cAVDWNLhs-83" target="1M11u-CtS68cAVDWNLhs-91" edge="1">
          <mxGeometry relative="1" as="geometry">
            <mxPoint x="450" y="207" as="sourcePoint" />
            <mxPoint x="550" y="257" as="targetPoint" />
            <Array as="points">
              <mxPoint x="320" y="287" />
            </Array>
          </mxGeometry>
        </mxCell>
        <mxCell id="1M11u-CtS68cAVDWNLhs-94" value="" style="edgeStyle=orthogonalEdgeStyle;rounded=0;orthogonalLoop=1;jettySize=auto;html=1;endArrow=none;endFill=0;entryX=0;entryY=0.5;entryDx=0;entryDy=0;fontFamily=Tahoma;exitX=1;exitY=0.5;exitDx=0;exitDy=0;" parent="1" source="1M11u-CtS68cAVDWNLhs-91" target="1M11u-CtS68cAVDWNLhs-90" edge="1">
          <mxGeometry relative="1" as="geometry">
            <mxPoint x="570" y="267" as="sourcePoint" />
            <mxPoint x="550" y="257" as="targetPoint" />
            <Array as="points" />
          </mxGeometry>
        </mxCell>
        <mxCell id="1M11u-CtS68cAVDWNLhs-96" value="ЭАО по кнопке" style="text;html=1;strokeColor=none;fillColor=none;align=left;verticalAlign=middle;whiteSpace=wrap;rounded=0;fontFamily=Tahoma;" parent="1" vertex="1">
          <mxGeometry x="327.5" y="258" width="102.5" height="30" as="geometry" />
        </mxCell>
        <mxCell id="1M11u-CtS68cAVDWNLhs-119" style="edgeStyle=orthogonalEdgeStyle;rounded=0;orthogonalLoop=1;jettySize=auto;html=1;entryX=0;entryY=0.25;entryDx=0;entryDy=0;endArrow=none;endFill=0;" parent="1" source="1M11u-CtS68cAVDWNLhs-118" target="1M11u-CtS68cAVDWNLhs-91" edge="1">
          <mxGeometry relative="1" as="geometry" />
        </mxCell>
        <mxCell id="1M11u-CtS68cAVDWNLhs-118" value="ЭАО от ЛИС КЦ" style="rounded=1;whiteSpace=wrap;html=1;fontFamily=Tahoma;" parent="1" vertex="1">
          <mxGeometry x="80" y="218" width="220" height="20" as="geometry" />
        </mxCell>
        <mxCell id="ysgFr3D8HpojYPAeVsqk-1" value="t, с" style="whiteSpace=wrap;html=1;rounded=0;fontFamily=Tahoma;" parent="1" vertex="1">
          <mxGeometry x="1030" y="120.5" width="40" height="40" as="geometry" />
        </mxCell>
        <mxCell id="ysgFr3D8HpojYPAeVsqk-2" value="- таймер (задержка)" style="text;html=1;strokeColor=none;fillColor=none;align=left;verticalAlign=middle;whiteSpace=wrap;rounded=0;fontFamily=Tahoma;" parent="1" vertex="1">
          <mxGeometry x="1080" y="125.5" width="120" height="30" as="geometry" />
        </mxCell>
        <mxCell id="ysgFr3D8HpojYPAeVsqk-3" value="Условные обозначения" style="text;html=1;strokeColor=none;fillColor=none;align=center;verticalAlign=middle;whiteSpace=wrap;rounded=0;fontFamily=Tahoma;fontStyle=1" parent="1" vertex="1">
          <mxGeometry x="1040" y="80.5" width="190" height="30" as="geometry" />
        </mxCell>
        <mxCell id="ysgFr3D8HpojYPAeVsqk-4" value="DO1" style="rounded=1;whiteSpace=wrap;html=1;fontFamily=Tahoma;" parent="1" vertex="1">
          <mxGeometry x="1030" y="170.5" width="40" height="20" as="geometry" />
        </mxCell>
        <mxCell id="ysgFr3D8HpojYPAeVsqk-5" value="- дискретный выход модуля контроллера" style="text;html=1;strokeColor=none;fillColor=none;align=left;verticalAlign=middle;whiteSpace=wrap;rounded=0;fontFamily=Tahoma;" parent="1" vertex="1">
          <mxGeometry x="1080" y="165.5" width="250" height="30" as="geometry" />
        </mxCell>
        <mxCell id="ysgFr3D8HpojYPAeVsqk-6" value="1" style="whiteSpace=wrap;html=1;rounded=0;fontFamily=Tahoma;verticalAlign=top;" parent="1" vertex="1">
          <mxGeometry x="1040" y="200.5" width="20" height="40" as="geometry" />
        </mxCell>
        <mxCell id="ysgFr3D8HpojYPAeVsqk-7" value="" style="ellipse;whiteSpace=wrap;html=1;aspect=fixed;rounded=1;fontFamily=Tahoma;" parent="1" vertex="1">
          <mxGeometry x="1058" y="218" width="5" height="5" as="geometry" />
        </mxCell>
        <mxCell id="ysgFr3D8HpojYPAeVsqk-8" value="- логический элемент ИЛИ (окружностью обозначена инверсия выхода)" style="text;html=1;strokeColor=none;fillColor=none;align=left;verticalAlign=middle;whiteSpace=wrap;rounded=0;fontFamily=Tahoma;" parent="1" vertex="1">
          <mxGeometry x="1080" y="200.5" width="310" height="40" as="geometry" />
        </mxCell>
        <mxCell id="ysgFr3D8HpojYPAeVsqk-9" value="&amp;amp;" style="whiteSpace=wrap;html=1;rounded=0;fontFamily=Tahoma;verticalAlign=top;" parent="1" vertex="1">
          <mxGeometry x="1040" y="250.5" width="20" height="40" as="geometry" />
        </mxCell>
        <mxCell id="ysgFr3D8HpojYPAeVsqk-10" value="- логический элемент И" style="text;html=1;strokeColor=none;fillColor=none;align=left;verticalAlign=middle;whiteSpace=wrap;rounded=0;fontFamily=Tahoma;" parent="1" vertex="1">
          <mxGeometry x="1080" y="250.5" width="250" height="40" as="geometry" />
        </mxCell>
        <mxCell id="ysgFr3D8HpojYPAeVsqk-11" value="2оо3" style="whiteSpace=wrap;html=1;rounded=0;fontFamily=Tahoma;" parent="1" vertex="1">
          <mxGeometry x="1030" y="353" width="40" height="60" as="geometry" />
        </mxCell>
        <mxCell id="ysgFr3D8HpojYPAeVsqk-12" value="- система с мажоритарным голосованием 2оо3, сигнал на выходе появится тогда, когда сработают любые 2 входа" style="text;html=1;strokeColor=none;fillColor=none;align=left;verticalAlign=middle;whiteSpace=wrap;rounded=0;fontFamily=Tahoma;" parent="1" vertex="1">
          <mxGeometry x="1080" y="363" width="310" height="40" as="geometry" />
        </mxCell>
        <mxCell id="ysgFr3D8HpojYPAeVsqk-13" value="&amp;amp;" style="whiteSpace=wrap;html=1;rounded=0;fontFamily=Tahoma;verticalAlign=top;" parent="1" vertex="1">
          <mxGeometry x="1040" y="300.5" width="20" height="40" as="geometry" />
        </mxCell>
        <mxCell id="ysgFr3D8HpojYPAeVsqk-14" value="- логический элемент И с инверсией одного входа" style="text;html=1;strokeColor=none;fillColor=none;align=left;verticalAlign=middle;whiteSpace=wrap;rounded=0;fontFamily=Tahoma;" parent="1" vertex="1">
          <mxGeometry x="1080" y="300.5" width="250" height="40" as="geometry" />
        </mxCell>
        <mxCell id="ysgFr3D8HpojYPAeVsqk-15" value="" style="ellipse;whiteSpace=wrap;html=1;aspect=fixed;rounded=1;fontFamily=Tahoma;" parent="1" vertex="1">
          <mxGeometry x="1037" y="328.5" width="5" height="5" as="geometry" />
        </mxCell>
        <mxCell id="1pJ_pbgR7bvH_1sQ6Tti-1" value="&lt;h1 style=&quot;border-color: var(--border-color); text-align: left; font-size: 14px;&quot;&gt;&lt;span style=&quot;font-weight: normal;&quot;&gt;Приложение 2 - Алгоритм ЭАО&lt;/span&gt;&lt;/h1&gt;&lt;h1 style=&quot;text-align: left; font-size: 14px;&quot;&gt;&lt;span style=&quot;font-weight: normal;&quot;&gt;ЛСНР.ххххххххх ПБ&lt;/span&gt;&lt;/h1&gt;" style="text;html=1;strokeColor=none;fillColor=none;spacing=5;spacingTop=-20;whiteSpace=wrap;overflow=hidden;rounded=0;align=center;fontSize=18;verticalAlign=top;fontFamily=Tahoma;" parent="1" vertex="1">
          <mxGeometry x="40" y="20" width="210" height="50" as="geometry" />
        </mxCell>
      </root>
    </mxGraphModel>
  </diagram>
  <diagram id="KjCAZHo6sr9IO5SEz2zb" name="ЭАО последствия">
    <mxGraphModel dx="1388" dy="820" grid="1" gridSize="10" guides="1" tooltips="1" connect="1" arrows="1" fold="1" page="1" pageScale="1" pageWidth="1169" pageHeight="827" math="0" shadow="0">
      <root>
        <mxCell id="0" />
        <mxCell id="1" parent="0" />
        <mxCell id="snfo3hUEOQCX2EgYNw8K-1" value="&lt;h1 style=&quot;border-color: var(--border-color); text-align: left; font-size: 14px;&quot;&gt;&lt;span style=&quot;font-weight: normal;&quot;&gt;Приложение 2 - Алгоритм ЭАО&lt;/span&gt;&lt;/h1&gt;&lt;h1 style=&quot;text-align: left; font-size: 14px;&quot;&gt;&lt;span style=&quot;font-weight: normal;&quot;&gt;ЛСНР.xxxxxxxxx ПБ&lt;/span&gt;&lt;/h1&gt;" style="text;html=1;strokeColor=none;fillColor=none;spacing=5;spacingTop=-20;whiteSpace=wrap;overflow=hidden;rounded=0;align=center;fontSize=18;verticalAlign=top;fontFamily=Tahoma;" parent="1" vertex="1">
          <mxGeometry x="40" y="20" width="210" height="50" as="geometry" />
        </mxCell>
        <mxCell id="vp8R3FniqfXXm2EuUfDi-2" value="ЭАО" style="rounded=1;whiteSpace=wrap;html=1;fontFamily=Tahoma;" parent="1" vertex="1">
          <mxGeometry x="65" y="110" width="40" height="20" as="geometry" />
        </mxCell>
        <mxCell id="vp8R3FniqfXXm2EuUfDi-4" value="" style="edgeStyle=orthogonalEdgeStyle;rounded=0;orthogonalLoop=1;jettySize=auto;html=1;endArrow=none;endFill=0;entryX=0;entryY=0.25;entryDx=0;entryDy=0;exitX=1;exitY=0.5;exitDx=0;exitDy=0;fontFamily=Tahoma;" parent="1" source="vp8R3FniqfXXm2EuUfDi-2" target="ncauQP9AvjcyV4FWilIb-8" edge="1">
          <mxGeometry relative="1" as="geometry">
            <mxPoint x="125" y="120" as="sourcePoint" />
            <mxPoint x="245" y="120" as="targetPoint" />
            <Array as="points" />
          </mxGeometry>
        </mxCell>
        <mxCell id="vp8R3FniqfXXm2EuUfDi-6" value="Снять питание с вых. модулей ЛИС БПТГ" style="rounded=1;whiteSpace=wrap;html=1;fontFamily=Tahoma;" parent="1" vertex="1">
          <mxGeometry x="240" y="210" width="255" height="20" as="geometry" />
        </mxCell>
        <mxCell id="vp8R3FniqfXXm2EuUfDi-21" value="" style="edgeStyle=orthogonalEdgeStyle;rounded=0;orthogonalLoop=1;jettySize=auto;html=1;endArrow=none;endFill=0;fontFamily=Tahoma;" parent="1" edge="1">
          <mxGeometry relative="1" as="geometry">
            <mxPoint x="190" y="220" as="sourcePoint" />
            <mxPoint x="240" y="220" as="targetPoint" />
            <Array as="points">
              <mxPoint x="220" y="220.19000000000005" />
              <mxPoint x="220" y="220.19000000000005" />
            </Array>
          </mxGeometry>
        </mxCell>
        <mxCell id="vp8R3FniqfXXm2EuUfDi-29" value="" style="edgeStyle=orthogonalEdgeStyle;rounded=0;orthogonalLoop=1;jettySize=auto;html=1;endArrow=none;endFill=0;fontFamily=Tahoma;entryX=0;entryY=0.25;entryDx=0;entryDy=0;" parent="1" edge="1" target="ztT179E0r6GBONuLtkep-4">
          <mxGeometry relative="1" as="geometry">
            <mxPoint x="190" y="120" as="sourcePoint" />
            <mxPoint x="225" y="360" as="targetPoint" />
            <Array as="points">
              <mxPoint x="190" y="370" />
            </Array>
          </mxGeometry>
        </mxCell>
        <mxCell id="vp8R3FniqfXXm2EuUfDi-32" value="Входной кран 1УА закрыть" style="whiteSpace=wrap;html=1;rounded=1;fontFamily=Tahoma;" parent="1" vertex="1">
          <mxGeometry x="600" y="130" width="205" height="20" as="geometry" />
        </mxCell>
        <mxCell id="vp8R3FniqfXXm2EuUfDi-34" value="15 с" style="whiteSpace=wrap;html=1;rounded=0;fontFamily=Tahoma;" parent="1" vertex="1">
          <mxGeometry x="265" y="300" width="40" height="40" as="geometry" />
        </mxCell>
        <mxCell id="vp8R3FniqfXXm2EuUfDi-39" value="Входной кран 1УА закрыт" style="whiteSpace=wrap;html=1;rounded=1;fontFamily=Tahoma;" parent="1" vertex="1">
          <mxGeometry x="30" y="400" width="150" height="20" as="geometry" />
        </mxCell>
        <mxCell id="vp8R3FniqfXXm2EuUfDi-41" value="60 с" style="whiteSpace=wrap;html=1;rounded=0;fontFamily=Tahoma;" parent="1" vertex="1">
          <mxGeometry x="865" y="120" width="40" height="40" as="geometry" />
        </mxCell>
        <mxCell id="vp8R3FniqfXXm2EuUfDi-42" value="" style="edgeStyle=orthogonalEdgeStyle;rounded=0;orthogonalLoop=1;jettySize=auto;html=1;endArrow=none;endFill=0;fontFamily=Tahoma;" parent="1" edge="1">
          <mxGeometry relative="1" as="geometry">
            <mxPoint x="825" y="140" as="sourcePoint" />
            <mxPoint x="825" y="250" as="targetPoint" />
            <Array as="points">
              <mxPoint x="825" y="150" />
              <mxPoint x="825" y="150" />
            </Array>
          </mxGeometry>
        </mxCell>
        <mxCell id="vp8R3FniqfXXm2EuUfDi-43" value="" style="edgeStyle=orthogonalEdgeStyle;rounded=0;orthogonalLoop=1;jettySize=auto;html=1;endArrow=none;endFill=0;entryX=0;entryY=0.5;entryDx=0;entryDy=0;fontFamily=Tahoma;" parent="1" target="vp8R3FniqfXXm2EuUfDi-44" edge="1">
          <mxGeometry relative="1" as="geometry">
            <mxPoint x="825" y="250" as="sourcePoint" />
            <mxPoint x="855" y="250" as="targetPoint" />
            <Array as="points">
              <mxPoint x="835" y="250" />
              <mxPoint x="835" y="250" />
            </Array>
          </mxGeometry>
        </mxCell>
        <mxCell id="vp8R3FniqfXXm2EuUfDi-44" value="Клапан г-г открыть" style="whiteSpace=wrap;html=1;rounded=1;fontFamily=Tahoma;" parent="1" vertex="1">
          <mxGeometry x="865" y="240" width="120" height="20" as="geometry" />
        </mxCell>
        <mxCell id="vp8R3FniqfXXm2EuUfDi-45" value="180 с" style="whiteSpace=wrap;html=1;rounded=0;fontFamily=Tahoma;" parent="1" vertex="1">
          <mxGeometry x="865" y="170" width="40" height="40" as="geometry" />
        </mxCell>
        <mxCell id="vp8R3FniqfXXm2EuUfDi-46" value="" style="edgeStyle=orthogonalEdgeStyle;rounded=0;orthogonalLoop=1;jettySize=auto;html=1;endArrow=none;endFill=0;entryX=0;entryY=0.5;entryDx=0;entryDy=0;fontFamily=Tahoma;" parent="1" edge="1">
          <mxGeometry relative="1" as="geometry">
            <mxPoint x="825" y="189.67000000000007" as="sourcePoint" />
            <mxPoint x="865" y="189.67000000000007" as="targetPoint" />
            <Array as="points">
              <mxPoint x="835" y="189.67000000000007" />
              <mxPoint x="835" y="189.67000000000007" />
            </Array>
          </mxGeometry>
        </mxCell>
        <mxCell id="vp8R3FniqfXXm2EuUfDi-47" value="Кран 14 открыть" style="whiteSpace=wrap;html=1;rounded=1;fontFamily=Tahoma;" parent="1" vertex="1">
          <mxGeometry x="985" y="130" width="120" height="20" as="geometry" />
        </mxCell>
        <mxCell id="vp8R3FniqfXXm2EuUfDi-48" value="Кран 13 закрыть" style="whiteSpace=wrap;html=1;rounded=1;fontFamily=Tahoma;" parent="1" vertex="1">
          <mxGeometry x="985" y="150" width="120" height="20" as="geometry" />
        </mxCell>
        <mxCell id="vp8R3FniqfXXm2EuUfDi-49" value="" style="edgeStyle=orthogonalEdgeStyle;rounded=0;orthogonalLoop=1;jettySize=auto;html=1;endArrow=none;endFill=0;entryX=0;entryY=0.5;entryDx=0;entryDy=0;fontFamily=Tahoma;exitX=1;exitY=0.5;exitDx=0;exitDy=0;" parent="1" source="vp8R3FniqfXXm2EuUfDi-41" target="vp8R3FniqfXXm2EuUfDi-47" edge="1">
          <mxGeometry relative="1" as="geometry">
            <mxPoint x="905" y="129.83000000000004" as="sourcePoint" />
            <mxPoint x="945" y="129.83000000000004" as="targetPoint" />
            <Array as="points">
              <mxPoint x="915" y="140" />
              <mxPoint x="915" y="140" />
            </Array>
          </mxGeometry>
        </mxCell>
        <mxCell id="vp8R3FniqfXXm2EuUfDi-50" value="" style="edgeStyle=orthogonalEdgeStyle;rounded=0;orthogonalLoop=1;jettySize=auto;html=1;endArrow=none;endFill=0;entryX=0;entryY=0.5;entryDx=0;entryDy=0;fontFamily=Tahoma;" parent="1" edge="1">
          <mxGeometry relative="1" as="geometry">
            <mxPoint x="945" y="159.67000000000002" as="sourcePoint" />
            <mxPoint x="985" y="159.67000000000002" as="targetPoint" />
            <Array as="points">
              <mxPoint x="955" y="159.67000000000002" />
              <mxPoint x="955" y="159.67000000000002" />
            </Array>
          </mxGeometry>
        </mxCell>
        <mxCell id="vp8R3FniqfXXm2EuUfDi-51" value="" style="edgeStyle=orthogonalEdgeStyle;rounded=0;orthogonalLoop=1;jettySize=auto;html=1;endArrow=none;endFill=0;fontFamily=Tahoma;" parent="1" edge="1">
          <mxGeometry relative="1" as="geometry">
            <mxPoint x="945.0300000000001" y="140" as="sourcePoint" />
            <mxPoint x="945.2" y="160" as="targetPoint" />
            <Array as="points">
              <mxPoint x="945.0300000000001" y="150" />
              <mxPoint x="945.0300000000001" y="150" />
            </Array>
          </mxGeometry>
        </mxCell>
        <mxCell id="vp8R3FniqfXXm2EuUfDi-52" value="" style="edgeStyle=orthogonalEdgeStyle;rounded=0;orthogonalLoop=1;jettySize=auto;html=1;endArrow=none;endFill=0;entryX=0;entryY=0.5;entryDx=0;entryDy=0;fontFamily=Tahoma;" parent="1" edge="1">
          <mxGeometry relative="1" as="geometry">
            <mxPoint x="905" y="189.70000000000005" as="sourcePoint" />
            <mxPoint x="985" y="189.87" as="targetPoint" />
            <Array as="points">
              <mxPoint x="915" y="189.87" />
            </Array>
          </mxGeometry>
        </mxCell>
        <mxCell id="vp8R3FniqfXXm2EuUfDi-53" value="МП отключить" style="whiteSpace=wrap;html=1;rounded=1;fontFamily=Tahoma;" parent="1" vertex="1">
          <mxGeometry x="985" y="180" width="120" height="20" as="geometry" />
        </mxCell>
        <mxCell id="WGOIWOtRlZful5z0XLVo-1" value="Примечание - при подаче команды выполняется блокировка соответствующей команды противоположного действия, например, для команды &quot;Кран 4 закрыть&quot; блокируется &quot;Кран 4 открыть&quot;&lt;br&gt;* - выполняется размыканием цепи управления противоположной команды&lt;br&gt;** - выполняется снятием питания с аналогового выхода &quot;Управление антипомпажным клапаном (Кран № 6р)&quot;" style="text;html=1;strokeColor=none;fillColor=none;align=left;verticalAlign=middle;whiteSpace=wrap;rounded=0;fontFamily=Tahoma;" parent="1" vertex="1">
          <mxGeometry x="40" y="740" width="1080" height="50" as="geometry" />
        </mxCell>
        <mxCell id="dngurfDs0G42bzSz9FTf-1" value="" style="edgeStyle=orthogonalEdgeStyle;rounded=0;orthogonalLoop=1;jettySize=auto;html=1;endArrow=none;endFill=0;fontFamily=Tahoma;exitX=1;exitY=0.5;exitDx=0;exitDy=0;" parent="1" edge="1">
          <mxGeometry relative="1" as="geometry">
            <mxPoint x="630" y="510" as="sourcePoint" />
            <mxPoint x="860" y="510" as="targetPoint" />
            <Array as="points" />
          </mxGeometry>
        </mxCell>
        <mxCell id="dngurfDs0G42bzSz9FTf-2" value="Компрессор №1 барьерного воздуха включить" style="whiteSpace=wrap;html=1;rounded=1;fontFamily=Tahoma;" parent="1" vertex="1">
          <mxGeometry x="700" y="480" width="360" height="20" as="geometry" />
        </mxCell>
        <mxCell id="dngurfDs0G42bzSz9FTf-3" value="Компрессор №2 барьерного воздуха включить" style="whiteSpace=wrap;html=1;rounded=1;fontFamily=Tahoma;" parent="1" vertex="1">
          <mxGeometry x="700" y="500" width="360" height="20" as="geometry" />
        </mxCell>
        <mxCell id="dngurfDs0G42bzSz9FTf-4" value="Кран барьерного воздуха КЭО1 открыть" style="whiteSpace=wrap;html=1;rounded=1;fontFamily=Tahoma;" parent="1" vertex="1">
          <mxGeometry x="700" y="520" width="360" height="20" as="geometry" />
        </mxCell>
        <mxCell id="dngurfDs0G42bzSz9FTf-5" value="Кран барьерного воздуха КЭО2 открыть" style="whiteSpace=wrap;html=1;rounded=1;fontFamily=Tahoma;" parent="1" vertex="1">
          <mxGeometry x="700" y="540" width="360" height="20" as="geometry" />
        </mxCell>
        <mxCell id="dngurfDs0G42bzSz9FTf-6" value="Кран подачи масла в двигатель открыть" style="whiteSpace=wrap;html=1;rounded=1;fontFamily=Tahoma;" parent="1" vertex="1">
          <mxGeometry x="700" y="560" width="360" height="20" as="geometry" />
        </mxCell>
        <mxCell id="dngurfDs0G42bzSz9FTf-7" value="Кран отбора газа для СГУ с выхода компрессора закрыть" style="whiteSpace=wrap;html=1;rounded=1;fontFamily=Tahoma;" parent="1" vertex="1">
          <mxGeometry x="700" y="580" width="360" height="20" as="geometry" />
        </mxCell>
        <mxCell id="dngurfDs0G42bzSz9FTf-8" value="" style="edgeStyle=orthogonalEdgeStyle;rounded=0;orthogonalLoop=1;jettySize=auto;html=1;endArrow=none;endFill=0;fontFamily=Tahoma;" parent="1" edge="1">
          <mxGeometry relative="1" as="geometry">
            <mxPoint x="660" y="490" as="sourcePoint" />
            <mxPoint x="660" y="590" as="targetPoint" />
            <Array as="points">
              <mxPoint x="660" y="490" />
              <mxPoint x="660" y="490" />
            </Array>
          </mxGeometry>
        </mxCell>
        <mxCell id="dngurfDs0G42bzSz9FTf-9" value="" style="edgeStyle=orthogonalEdgeStyle;rounded=0;orthogonalLoop=1;jettySize=auto;html=1;endArrow=none;endFill=0;entryX=0;entryY=0.5;entryDx=0;entryDy=0;fontFamily=Tahoma;" parent="1" edge="1">
          <mxGeometry relative="1" as="geometry">
            <mxPoint x="660" y="489.83000000000004" as="sourcePoint" />
            <mxPoint x="700" y="489.83000000000004" as="targetPoint" />
            <Array as="points">
              <mxPoint x="670" y="489.83000000000004" />
              <mxPoint x="670" y="489.83000000000004" />
            </Array>
          </mxGeometry>
        </mxCell>
        <mxCell id="dngurfDs0G42bzSz9FTf-10" value="" style="edgeStyle=orthogonalEdgeStyle;rounded=0;orthogonalLoop=1;jettySize=auto;html=1;endArrow=none;endFill=0;entryX=0;entryY=0.5;entryDx=0;entryDy=0;fontFamily=Tahoma;" parent="1" edge="1">
          <mxGeometry relative="1" as="geometry">
            <mxPoint x="660" y="509.86" as="sourcePoint" />
            <mxPoint x="700" y="509.86" as="targetPoint" />
            <Array as="points">
              <mxPoint x="670" y="509.86" />
              <mxPoint x="670" y="509.86" />
            </Array>
          </mxGeometry>
        </mxCell>
        <mxCell id="dngurfDs0G42bzSz9FTf-11" value="" style="edgeStyle=orthogonalEdgeStyle;rounded=0;orthogonalLoop=1;jettySize=auto;html=1;endArrow=none;endFill=0;entryX=0;entryY=0.5;entryDx=0;entryDy=0;fontFamily=Tahoma;" parent="1" edge="1">
          <mxGeometry relative="1" as="geometry">
            <mxPoint x="660" y="529.83" as="sourcePoint" />
            <mxPoint x="700" y="529.83" as="targetPoint" />
            <Array as="points">
              <mxPoint x="670" y="529.83" />
              <mxPoint x="670" y="529.83" />
            </Array>
          </mxGeometry>
        </mxCell>
        <mxCell id="dngurfDs0G42bzSz9FTf-12" value="" style="edgeStyle=orthogonalEdgeStyle;rounded=0;orthogonalLoop=1;jettySize=auto;html=1;endArrow=none;endFill=0;entryX=0;entryY=0.5;entryDx=0;entryDy=0;fontFamily=Tahoma;" parent="1" edge="1">
          <mxGeometry relative="1" as="geometry">
            <mxPoint x="660" y="549.86" as="sourcePoint" />
            <mxPoint x="700" y="549.86" as="targetPoint" />
            <Array as="points">
              <mxPoint x="670" y="549.86" />
              <mxPoint x="670" y="549.86" />
            </Array>
          </mxGeometry>
        </mxCell>
        <mxCell id="dngurfDs0G42bzSz9FTf-13" value="" style="edgeStyle=orthogonalEdgeStyle;rounded=0;orthogonalLoop=1;jettySize=auto;html=1;endArrow=none;endFill=0;entryX=0;entryY=0.5;entryDx=0;entryDy=0;fontFamily=Tahoma;" parent="1" edge="1">
          <mxGeometry relative="1" as="geometry">
            <mxPoint x="660" y="569.83" as="sourcePoint" />
            <mxPoint x="700" y="569.83" as="targetPoint" />
            <Array as="points">
              <mxPoint x="670" y="569.83" />
              <mxPoint x="670" y="569.83" />
            </Array>
          </mxGeometry>
        </mxCell>
        <mxCell id="dngurfDs0G42bzSz9FTf-14" value="" style="edgeStyle=orthogonalEdgeStyle;rounded=0;orthogonalLoop=1;jettySize=auto;html=1;endArrow=none;endFill=0;entryX=0;entryY=0.5;entryDx=0;entryDy=0;fontFamily=Tahoma;" parent="1" edge="1">
          <mxGeometry relative="1" as="geometry">
            <mxPoint x="660" y="589.86" as="sourcePoint" />
            <mxPoint x="700" y="589.86" as="targetPoint" />
            <Array as="points">
              <mxPoint x="670" y="589.86" />
              <mxPoint x="670" y="589.86" />
            </Array>
          </mxGeometry>
        </mxCell>
        <mxCell id="ncauQP9AvjcyV4FWilIb-7" value="10 c" style="whiteSpace=wrap;html=1;rounded=0;fontFamily=Tahoma;" parent="1" vertex="1">
          <mxGeometry x="470" y="140" width="40" height="40" as="geometry" />
        </mxCell>
        <mxCell id="ztT179E0r6GBONuLtkep-11" style="edgeStyle=none;curved=1;rounded=0;orthogonalLoop=1;jettySize=auto;html=1;fontSize=12;startSize=8;endSize=8;" edge="1" parent="1">
          <mxGeometry relative="1" as="geometry">
            <mxPoint x="600" y="240" as="targetPoint" />
            <mxPoint x="590" y="340" as="sourcePoint" />
          </mxGeometry>
        </mxCell>
        <mxCell id="ncauQP9AvjcyV4FWilIb-8" value="&amp;amp;" style="whiteSpace=wrap;html=1;rounded=0;fontFamily=Tahoma;verticalAlign=top;" parent="1" vertex="1">
          <mxGeometry x="542" y="100" width="20" height="80" as="geometry" />
        </mxCell>
        <mxCell id="ncauQP9AvjcyV4FWilIb-9" value="" style="ellipse;whiteSpace=wrap;html=1;aspect=fixed;rounded=1;fontFamily=Tahoma;" parent="1" vertex="1">
          <mxGeometry x="537" y="156.5" width="5" height="5" as="geometry" />
        </mxCell>
        <mxCell id="ncauQP9AvjcyV4FWilIb-10" value="" style="edgeStyle=orthogonalEdgeStyle;rounded=0;orthogonalLoop=1;jettySize=auto;html=1;endArrow=none;endFill=0;fontFamily=Tahoma;" parent="1" edge="1">
          <mxGeometry relative="1" as="geometry">
            <mxPoint x="440" y="159.99000000000007" as="sourcePoint" />
            <mxPoint x="470" y="160" as="targetPoint" />
            <Array as="points">
              <mxPoint x="460" y="159.99000000000007" />
              <mxPoint x="460" y="159.99000000000007" />
            </Array>
          </mxGeometry>
        </mxCell>
        <mxCell id="ncauQP9AvjcyV4FWilIb-11" value="" style="edgeStyle=orthogonalEdgeStyle;rounded=0;orthogonalLoop=1;jettySize=auto;html=1;endArrow=none;endFill=0;fontFamily=Tahoma;entryX=0;entryY=0.5;entryDx=0;entryDy=0;exitX=1;exitY=0.5;exitDx=0;exitDy=0;" parent="1" edge="1">
          <mxGeometry relative="1" as="geometry">
            <mxPoint x="510" y="159" as="sourcePoint" />
            <mxPoint x="537" y="158" as="targetPoint" />
            <Array as="points" />
          </mxGeometry>
        </mxCell>
        <mxCell id="ncauQP9AvjcyV4FWilIb-12" value="" style="edgeStyle=orthogonalEdgeStyle;rounded=0;orthogonalLoop=1;jettySize=auto;html=1;endArrow=none;endFill=0;fontFamily=Tahoma;" parent="1" edge="1">
          <mxGeometry relative="1" as="geometry">
            <mxPoint x="440" y="120" as="sourcePoint" />
            <mxPoint x="440" y="160" as="targetPoint" />
            <Array as="points">
              <mxPoint x="440" y="130" />
              <mxPoint x="440" y="130" />
            </Array>
          </mxGeometry>
        </mxCell>
        <mxCell id="lG8BZ00KBG59aB3c4YK1-5" value="" style="edgeStyle=orthogonalEdgeStyle;rounded=0;orthogonalLoop=1;jettySize=auto;html=1;endArrow=none;endFill=0;entryX=0;entryY=0.5;entryDx=0;entryDy=0;fontFamily=Tahoma;exitX=1.008;exitY=0.495;exitDx=0;exitDy=0;exitPerimeter=0;" parent="1" edge="1" source="ncauQP9AvjcyV4FWilIb-8">
          <mxGeometry relative="1" as="geometry">
            <mxPoint x="560" y="139.86" as="sourcePoint" />
            <mxPoint x="600" y="139.86" as="targetPoint" />
            <Array as="points">
              <mxPoint x="570" y="140" />
            </Array>
          </mxGeometry>
        </mxCell>
        <mxCell id="kb3w1TMYhDqOUEDyAWUW-1" value="Индикация ЭО на ПРУ" style="whiteSpace=wrap;html=1;rounded=1;fontFamily=Tahoma;" parent="1" vertex="1">
          <mxGeometry x="240" y="250" width="255" height="20" as="geometry" />
        </mxCell>
        <mxCell id="kb3w1TMYhDqOUEDyAWUW-4" value="" style="edgeStyle=orthogonalEdgeStyle;rounded=0;orthogonalLoop=1;jettySize=auto;html=1;endArrow=none;endFill=0;fontFamily=Tahoma;exitX=1;exitY=0.5;exitDx=0;exitDy=0;entryX=0.002;entryY=0.513;entryDx=0;entryDy=0;entryPerimeter=0;" parent="1" target="kb3w1TMYhDqOUEDyAWUW-1" edge="1">
          <mxGeometry relative="1" as="geometry">
            <mxPoint x="105" y="120" as="sourcePoint" />
            <mxPoint x="184" y="260" as="targetPoint" />
            <Array as="points">
              <mxPoint x="190" y="120" />
              <mxPoint x="190" y="260" />
            </Array>
          </mxGeometry>
        </mxCell>
        <mxCell id="ztT179E0r6GBONuLtkep-3" value="" style="edgeStyle=orthogonalEdgeStyle;rounded=0;orthogonalLoop=1;jettySize=auto;html=1;endArrow=none;endFill=0;fontFamily=Tahoma;entryX=0;entryY=0.5;entryDx=0;entryDy=0;" edge="1" parent="1" target="vp8R3FniqfXXm2EuUfDi-34">
          <mxGeometry relative="1" as="geometry">
            <mxPoint x="190" y="319.89" as="sourcePoint" />
            <mxPoint x="240" y="319.89" as="targetPoint" />
            <Array as="points">
              <mxPoint x="220" y="320" />
            </Array>
          </mxGeometry>
        </mxCell>
        <mxCell id="ztT179E0r6GBONuLtkep-4" value="&amp;amp;" style="whiteSpace=wrap;html=1;rounded=0;fontFamily=Tahoma;verticalAlign=top;" vertex="1" parent="1">
          <mxGeometry x="265" y="350" width="20" height="80" as="geometry" />
        </mxCell>
        <mxCell id="ztT179E0r6GBONuLtkep-5" value="1" style="whiteSpace=wrap;html=1;rounded=0;fontFamily=Tahoma;verticalAlign=top;" vertex="1" parent="1">
          <mxGeometry x="367.5" y="310" width="20" height="80" as="geometry" />
        </mxCell>
        <mxCell id="ztT179E0r6GBONuLtkep-6" value="Кран 5 открыть" style="whiteSpace=wrap;html=1;rounded=1;fontFamily=Tahoma;" vertex="1" parent="1">
          <mxGeometry x="875" y="230" width="120" height="20" as="geometry" />
        </mxCell>
        <mxCell id="ztT179E0r6GBONuLtkep-7" value="" style="edgeStyle=orthogonalEdgeStyle;rounded=0;orthogonalLoop=1;jettySize=auto;html=1;endArrow=none;endFill=0;fontFamily=Tahoma;entryX=0;entryY=0.75;entryDx=0;entryDy=0;exitX=1;exitY=0.5;exitDx=0;exitDy=0;" edge="1" parent="1" source="vp8R3FniqfXXm2EuUfDi-39" target="ztT179E0r6GBONuLtkep-4">
          <mxGeometry relative="1" as="geometry">
            <mxPoint x="180" y="410" as="sourcePoint" />
            <mxPoint x="255" y="413.03" as="targetPoint" />
            <Array as="points">
              <mxPoint x="180" y="410" />
            </Array>
          </mxGeometry>
        </mxCell>
        <mxCell id="ztT179E0r6GBONuLtkep-8" value="" style="edgeStyle=orthogonalEdgeStyle;rounded=0;orthogonalLoop=1;jettySize=auto;html=1;endArrow=none;endFill=0;fontFamily=Tahoma;entryX=0;entryY=0.75;entryDx=0;entryDy=0;" edge="1" parent="1" target="ztT179E0r6GBONuLtkep-5">
          <mxGeometry relative="1" as="geometry">
            <mxPoint x="285" y="390" as="sourcePoint" />
            <mxPoint x="360" y="390.11" as="targetPoint" />
            <Array as="points">
              <mxPoint x="330" y="390" />
              <mxPoint x="330" y="370" />
            </Array>
          </mxGeometry>
        </mxCell>
        <mxCell id="ztT179E0r6GBONuLtkep-9" value="" style="edgeStyle=orthogonalEdgeStyle;rounded=0;orthogonalLoop=1;jettySize=auto;html=1;endArrow=none;endFill=0;fontFamily=Tahoma;entryX=0;entryY=0.25;entryDx=0;entryDy=0;" edge="1" parent="1" target="ztT179E0r6GBONuLtkep-5">
          <mxGeometry relative="1" as="geometry">
            <mxPoint x="305" y="319.91999999999996" as="sourcePoint" />
            <mxPoint x="380" y="320.03" as="targetPoint" />
            <Array as="points">
              <mxPoint x="330" y="320" />
              <mxPoint x="330" y="330" />
            </Array>
          </mxGeometry>
        </mxCell>
        <mxCell id="ztT179E0r6GBONuLtkep-10" value="&amp;amp;" style="whiteSpace=wrap;html=1;rounded=0;fontFamily=Tahoma;verticalAlign=top;" vertex="1" parent="1">
          <mxGeometry x="522" y="310" width="20" height="80" as="geometry" />
        </mxCell>
      </root>
    </mxGraphModel>
  </diagram>
</mxfile>
